<svg width="25" height="25" viewBox="0 0 25 25" fill="none" xmlns="http://www.w3.org/2000/svg">
<path d="M21.6215 11.5478C22.3536 11.0334 22.8383 10.1776 22.8383 9.21302C22.8383 7.63506 21.5621 6.35884 19.9842 6.35884C18.4062 6.35884 17.13 7.63506 17.13 9.21302C17.13 10.1776 17.6098 11.0334 18.3469 11.5478C17.7186 11.7655 17.1448 12.1018 16.6601 12.5371C15.9923 11.9683 15.2058 11.533 14.3451 11.2757C15.3888 10.6426 16.0912 9.49002 16.0912 8.17918C16.0912 6.18076 14.4737 4.56323 12.4753 4.56323C10.4769 4.56323 8.85932 6.18571 8.85932 8.17918C8.85932 9.49002 9.55679 10.6426 10.6055 11.2757C9.75465 11.533 8.97804 11.9633 8.3152 12.5223C7.83043 12.0969 7.26652 11.7655 6.6482 11.5527C7.38029 11.0383 7.86506 10.1825 7.86506 9.21796C7.86506 7.64 6.58884 6.36379 5.01088 6.36379C3.43292 6.36379 2.15671 7.64 2.15671 9.21796C2.15671 10.1825 2.63653 11.0383 3.37357 11.5527C1.40977 12.2304 0 14.0953 0 16.2866V16.6131C0 16.623 0.00989315 16.6329 0.0197863 16.6329H6.06945C6.03482 16.9049 6.01504 17.1869 6.01504 17.4689V17.8052C6.01504 19.2595 7.19232 20.4368 8.64662 20.4368H16.3138C17.7681 20.4368 18.9454 19.2595 18.9454 17.8052V17.4689C18.9454 17.1869 18.9256 16.9049 18.891 16.6329H24.9802C24.9901 16.6329 25 16.623 25 16.6131V16.2866C24.9901 14.0903 23.5853 12.2255 21.6215 11.5478ZM17.9214 9.20807C17.9214 8.07036 18.8465 7.14535 19.9842 7.14535C21.1219 7.14535 22.0469 8.07036 22.0469 9.20807C22.0469 10.3309 21.1417 11.2461 20.0237 11.2708C20.0089 11.2708 19.999 11.2708 19.9842 11.2708C19.9693 11.2708 19.9594 11.2708 19.9446 11.2708C18.8217 11.251 17.9214 10.3359 17.9214 9.20807ZM9.64088 8.17918C9.64088 6.62101 10.9072 5.35468 12.4654 5.35468C14.0235 5.35468 15.2899 6.62101 15.2899 8.17918C15.2899 9.68294 14.1076 10.9146 12.6286 10.9987C12.5742 10.9987 12.5198 10.9987 12.4654 10.9987C12.411 10.9987 12.3565 10.9987 12.3021 10.9987C10.8231 10.9146 9.64088 9.68294 9.64088 8.17918ZM2.93332 9.20807C2.93332 8.07036 3.85833 7.14535 4.99604 7.14535C6.13376 7.14535 7.05877 8.07036 7.05877 9.20807C7.05877 10.3309 6.15354 11.2461 5.03562 11.2708C5.02078 11.2708 5.01088 11.2708 4.99604 11.2708C4.9812 11.2708 4.97131 11.2708 4.95647 11.2708C3.83854 11.251 2.93332 10.3359 2.93332 9.20807ZM6.20795 15.8365H0.801346C1.02394 13.7292 2.80471 12.0771 4.96636 12.0622C4.97626 12.0622 4.98615 12.0622 4.99604 12.0622C5.00594 12.0622 5.01583 12.0622 5.02572 12.0622C6.05461 12.0672 6.99446 12.4481 7.72161 13.0664C7.0093 13.8381 6.48002 14.7878 6.20795 15.8365ZM18.144 17.8052C18.144 18.8193 17.318 19.6453 16.3039 19.6453H8.63672C7.62268 19.6453 6.7966 18.8193 6.7966 17.8052V17.4689C6.7966 14.397 9.2501 11.8842 12.3021 11.7951C12.3565 11.8001 12.4159 11.8001 12.4703 11.8001C12.5247 11.8001 12.5841 11.8001 12.6385 11.7951C15.6905 11.8842 18.144 14.397 18.144 17.4689V17.8052ZM18.7327 15.8365C18.4606 14.7928 17.9412 13.8579 17.2339 13.0862C17.966 12.453 18.9157 12.0721 19.9545 12.0622C19.9644 12.0622 19.9743 12.0622 19.9842 12.0622C19.9941 12.0622 20.004 12.0622 20.0139 12.0622C22.1755 12.0771 23.9563 13.7292 24.1789 15.8365H18.7327Z" fill="#FF7D5F"/>
</svg>
