<svg width="20" height="20" viewBox="0 0 20 20" fill="none" xmlns="http://www.w3.org/2000/svg">
<path d="M16.821 11.6665C16.4202 11.6666 16.0358 11.8258 15.7523 12.1092L11.862 15.9999H9.33331V15.6665C9.33223 14.7465 8.58665 14.001 7.66665 13.9999H7.33331C6.9651 13.9999 6.66665 14.2983 6.66665 14.6665V14.9999C6.66794 15.3617 6.7881 15.713 7.00865 15.9999H4.33331V19.9999H15.6666V16.4712L17.8903 14.2472C18.1749 13.9644 18.3344 13.5794 18.3333 13.1782C18.3331 12.3432 17.6561 11.6663 16.821 11.6665ZM7.33331 14.6665H7.66665C8.21894 14.6665 8.66665 15.1142 8.66665 15.6665V15.9999H8.33331C7.78102 15.9999 7.33331 15.5522 7.33331 14.9999V14.6665ZM15 19.3332H4.99998V16.6665H15V19.3332ZM17.4379 13.757C17.4316 13.7634 17.4254 13.7697 17.419 13.7759L15.1953 15.9999H12.8046L16.2236 12.5805C16.5485 12.2453 17.0837 12.2368 17.419 12.5617C17.7543 12.8865 17.7627 13.4217 17.4379 13.757Z" fill="#FF7D5F"/>
<path d="M17 13H16.3333V13.6667H17V13Z" fill="#FF7D5F"/>
<path d="M15.6667 14.3333H15V14.9999H15.6667V14.3333Z" fill="#FF7D5F"/>
<path d="M4.5693 12.7643C4.41784 12.6137 4.33288 12.4088 4.3333 12.1953C4.33276 11.7194 3.94713 11.3338 3.4713 11.3333H3.1953C2.71946 11.3338 2.33384 11.7194 2.3333 12.1953C2.33371 12.4088 2.24876 12.6137 2.0973 12.7643C1.82059 13.0396 1.66555 13.4142 1.66663 13.8046V13.8619C1.66755 14.6741 2.32576 15.3323 3.13796 15.3333H3.52863C4.34084 15.3323 4.99905 14.6741 4.99996 13.8619V13.8046C5.00105 13.4142 4.84601 13.0396 4.5693 12.7643ZM4.3333 13.8619C4.33276 14.3061 3.9728 14.666 3.52863 14.6666H3.13796C2.6938 14.666 2.33384 14.3061 2.3333 13.8619V13.8046C2.33288 13.591 2.41784 13.3862 2.5693 13.2356C2.84601 12.9602 3.00105 12.5856 2.99996 12.1953C2.99996 12.0874 3.08742 11.9999 3.1953 11.9999H3.4713C3.57917 11.9999 3.66663 12.0874 3.66663 12.1953C3.66555 12.5856 3.82059 12.9602 4.0973 13.2356C4.24876 13.3862 4.33371 13.591 4.3333 13.8046V13.8619Z" fill="#FF7D5F"/>
<path d="M7.64998 8.66657L8.13832 8.17823C8.63665 7.67994 8.63673 6.87202 8.13844 6.37369C7.89903 6.13423 7.57423 5.99977 7.23565 5.9999H7.14498C6.98553 5.22444 6.30336 4.66757 5.51165 4.66657H5.31665L5.24765 4.59757C4.65728 4.00719 3.70003 4.00719 3.10965 4.59757C2.51928 5.18794 2.51928 6.14519 3.10965 6.73557L3.17865 6.80457V6.9999C3.17965 7.79161 3.73653 8.47377 4.51198 8.63323V8.7239C4.5119 9.42861 5.08315 9.99994 5.78786 10C6.12636 10.0001 6.45098 9.86561 6.69032 9.62623L7.17865 9.1379L8.27632 10.2356L8.74765 9.76423L7.64998 8.66657ZM7.17832 8.19523L6.08065 7.09757L5.60932 7.5689L6.70732 8.66657L6.21898 9.1549C5.98065 9.39273 5.59465 9.39236 5.35678 9.15402C5.24282 9.03986 5.17878 8.88519 5.17865 8.7239V7.9999H4.84532C4.29303 7.9999 3.84532 7.55219 3.84532 6.9999V6.52857L3.58098 6.26423C3.22165 5.96561 3.1284 5.48519 3.42703 5.12586C3.46023 5.0859 3.49703 5.04911 3.58098 5.0689C3.91115 4.73907 4.44615 4.73907 4.77632 5.0689L5.04065 5.33323H5.51198C6.06428 5.33323 6.51198 5.78094 6.51198 6.33323V6.66657H7.23565C7.57219 6.6664 7.84511 6.93911 7.84528 7.27561C7.84536 7.43736 7.78111 7.59252 7.66665 7.7069L7.17832 8.19523Z" fill="#FF7D5F"/>
<path d="M13.1666 10.3334H13C13 9.68908 12.4776 9.16675 11.8333 9.16675C11.189 9.16675 10.6666 9.68908 10.6666 10.3334H10.5C9.85565 10.3334 9.33331 10.8557 9.33331 11.5001C9.33331 12.1444 9.85565 12.6667 10.5 12.6667H10.6666V14.0001H13V12.6667H13.1666C13.811 12.6667 14.3333 12.1444 14.3333 11.5001C14.3333 10.8557 13.811 10.3334 13.1666 10.3334ZM12.3333 13.3334H11.3333V12.6667H12.3333V13.3334ZM13.1666 12.0001H10.5C10.2239 12.0001 9.99998 11.7762 9.99998 11.5001C9.99998 11.224 10.2239 11.0001 10.5 11.0001H11.3333V10.3334C11.3333 10.0573 11.5572 9.83341 11.8333 9.83341C12.1094 9.83341 12.3333 10.0573 12.3333 10.3334V11.0001H13.1666C13.4428 11.0001 13.6666 11.224 13.6666 11.5001C13.6666 11.7762 13.4428 12.0001 13.1666 12.0001Z" fill="#FF7D5F"/>
<path d="M7.33331 10.6667H6.99998C6.07998 10.6678 5.3344 11.4134 5.33331 12.3334V12.6667C5.33331 13.035 5.63177 13.3334 5.99998 13.3334H6.33331C7.25331 13.3323 7.9989 12.5867 7.99998 11.6667V11.3334C7.99998 10.9652 7.70152 10.6667 7.33331 10.6667ZM7.33331 11.6667C7.33331 12.219 6.8856 12.6667 6.33331 12.6667H5.99998V12.3334C5.99998 11.7811 6.44769 11.3334 6.99998 11.3334H7.33331V11.6667Z" fill="#FF7D5F"/>
<path d="M17 6.33325C16.266 6.33496 15.5751 6.68038 15.1334 7.26659C14.8313 7.67092 14.6676 8.16188 14.6667 8.66659V9.33325C14.6684 9.7555 14.9352 10.1312 15.3334 10.2719V10.9999H16V10.2719C16.3981 10.1312 16.6649 9.7555 16.6667 9.33325V8.93325C16.6664 8.60721 16.763 8.28842 16.944 8.01725C17.1979 7.63713 17.3334 7.19034 17.3334 6.73325V6.33325H17ZM16.3894 7.64825C16.1353 8.02863 15.9998 8.47584 16 8.93325V9.33325C16 9.51734 15.8508 9.66659 15.6667 9.66659C15.4826 9.66659 15.3334 9.51734 15.3334 9.33325V8.66659C15.3336 7.88579 15.8759 7.20984 16.638 7.04025C16.5968 7.25759 16.5122 7.46434 16.3894 7.64825Z" fill="#FF7D5F"/>
<path d="M10.6054 0.666667C10.4646 0.268542 10.0889 0.00175 9.66669 0H9.00002C7.71135 0 6.66669 1.04467 6.66669 2.33333V2.66667H7.06669C7.5241 2.66692 7.97131 2.53142 8.35169 2.27733C8.62256 2.09646 8.94098 1.99992 9.26669 2H9.66669C10.0889 1.99825 10.4646 1.73146 10.6054 1.33333H11.3334V0.666667H10.6054ZM9.66669 1.33333H9.26669C8.80902 1.33296 8.36156 1.46846 7.98102 1.72267C7.79698 1.84554 7.5901 1.93008 7.37269 1.97133C7.4599 1.58338 7.68227 1.23908 8.00002 1C8.28885 0.784333 8.63952 0.667417 9.00002 0.666667H9.66669C9.85077 0.666667 10 0.815917 10 1C10 1.18408 9.85077 1.33333 9.66669 1.33333Z" fill="#FF7D5F"/>
<path d="M11.6667 2.70567V2H11V2.70567C10.243 2.87663 9.74213 3.59763 9.84601 4.36667L10.2483 7.38433C10.3278 7.98367 10.8781 8.40508 11.4774 8.32558C11.9678 8.26054 12.3537 7.87471 12.4187 7.38433L12.8207 4.36667C12.9246 3.59763 12.4237 2.87663 11.6667 2.70567ZM12.16 4.27767L12.0193 5.33333H11.3333V6H11.9303L11.7577 7.29533C11.7268 7.52967 11.5118 7.69463 11.2774 7.66375C11.0854 7.63846 10.9343 7.48733 10.909 7.29533L10.5587 4.66667H11.3333V4H10.521C10.6132 3.55004 11.0528 3.26004 11.5027 3.35225C11.931 3.44 12.2182 3.84438 12.16 4.27767Z" fill="#FF7D5F"/>
<path d="M14.6666 4.66675H14.3333C13.781 4.66675 13.3333 5.11446 13.3333 5.66675C13.3333 6.21904 13.781 6.66675 14.3333 6.66675H14.6666C15.2189 6.66675 15.6666 6.21904 15.6666 5.66675C15.6666 5.11446 15.2189 4.66675 14.6666 4.66675ZM14.6666 6.00008H14.3333C14.1492 6.00008 14 5.85083 14 5.66675C14 5.48266 14.1492 5.33341 14.3333 5.33341H14.6666C14.8507 5.33341 15 5.48266 15 5.66675C15 5.85083 14.8507 6.00008 14.6666 6.00008Z" fill="#FF7D5F"/>
<path d="M8.33333 3.33325H8C7.44771 3.33325 7 3.78096 7 4.33325C7 4.88554 7.44771 5.33325 8 5.33325H8.33333C8.88562 5.33325 9.33333 4.88554 9.33333 4.33325C9.33333 3.78096 8.88562 3.33325 8.33333 3.33325ZM8.33333 4.66659H8C7.81592 4.66659 7.66667 4.51734 7.66667 4.33325C7.66667 4.14917 7.81592 3.99992 8 3.99992H8.33333C8.51742 3.99992 8.66667 4.14917 8.66667 4.33325C8.66667 4.51734 8.51742 4.66659 8.33333 4.66659Z" fill="#FF7D5F"/>
</svg>
