<svg width="20" height="20" viewBox="0 0 20 20" fill="none" xmlns="http://www.w3.org/2000/svg">
<path d="M6.51558 17.5085C13.5914 17.5085 17.4609 11.6464 17.4609 6.56319C17.4609 6.3967 17.4575 6.2309 17.45 6.06601C18.2011 5.52296 18.8539 4.84529 19.3689 4.07394C18.6797 4.38044 17.9378 4.58649 17.1598 4.67971C17.954 4.20328 18.5638 3.44993 18.8513 2.55188C18.1081 2.99254 17.2849 3.31268 16.4086 3.48559C15.7067 2.73787 14.7071 2.27026 13.6005 2.27026C11.4762 2.27026 9.75337 3.99299 9.75337 6.11657C9.75337 6.4186 9.7872 6.71214 9.85313 6.99376C6.65593 6.83288 3.82073 5.30223 1.92361 2.97453C1.59337 3.54293 1.4028 4.20339 1.4028 4.90812C1.4028 6.24259 2.08196 7.421 3.11463 8.11013C2.48351 8.09076 1.8907 7.9175 1.37241 7.62912C1.37184 7.64528 1.37184 7.66099 1.37184 7.67819C1.37184 9.54126 2.69782 11.0968 4.45827 11.4493C4.13492 11.5372 3.7947 11.5846 3.44383 11.5846C3.19638 11.5846 2.95513 11.5603 2.72075 11.5152C3.21049 13.0437 4.63073 14.1559 6.31446 14.1871C4.99777 15.2191 3.33914 15.8338 1.5365 15.8338C1.22644 15.8338 0.919945 15.8161 0.618835 15.7805C2.32138 16.8718 4.34303 17.5086 6.5157 17.5086" fill="#FF7D5F"/>
</svg>
