<svg width="20" height="20" viewBox="0 0 20 20" fill="none" xmlns="http://www.w3.org/2000/svg">
<g clip-path="url(#clip0)">
<path d="M9.86111 0C4.42383 0 0 4.4859 0 10C0 15.5141 4.42383 20 9.86111 20C15.2986 20 19.7222 15.5141 19.7222 10C19.7222 4.4859 15.2984 0 9.86111 0ZM9.86111 18.5402C5.21753 18.5402 1.43957 14.709 1.43957 10C1.43957 5.29102 5.21753 1.45984 9.86111 1.45984C14.5047 1.45984 18.2827 5.29098 18.2827 9.99977C18.2827 14.709 14.5047 18.5402 9.86111 18.5402Z" fill="#FF7D5F"/>
<path d="M13.2201 9.99987H10.101V5.6203C10.101 5.21714 9.77882 4.89038 9.38125 4.89038C8.98369 4.89038 8.66147 5.21714 8.66147 5.6203V10.7298C8.66147 11.133 8.98369 11.4597 9.38125 11.4597H13.2201C13.6177 11.4597 13.9399 11.133 13.9399 10.7298C13.9399 10.3266 13.6177 9.99987 13.2201 9.99987Z" fill="#FF7D5F"/>
</g>
<defs>
<clipPath id="clip0">
<rect width="19.7222" height="20" fill="white"/>
</clipPath>
</defs>
</svg>
