<svg width="20" height="20" viewBox="0 0 20 20" fill="none" xmlns="http://www.w3.org/2000/svg">
<g clip-path="url(#clip0)">
<path d="M19.5575 4.94093L19.5825 5.10426C19.3408 4.24676 18.6883 3.58509 17.8592 3.34426L17.8417 3.34009C16.2825 2.91676 10.0083 2.91676 10.0083 2.91676C10.0083 2.91676 3.75 2.90843 2.175 3.34009C1.33 3.58509 0.676668 4.24676 0.439168 5.08676L0.435001 5.10426C-0.147499 8.14676 -0.151666 11.8026 0.460834 15.0601L0.435001 14.8951C0.676668 15.7526 1.32917 16.4143 2.15833 16.6551L2.17583 16.6593C3.73334 17.0834 10.0092 17.0834 10.0092 17.0834C10.0092 17.0834 16.2667 17.0834 17.8425 16.6593C18.6883 16.4143 19.3417 15.7526 19.5792 14.9126L19.5833 14.8951C19.8483 13.4801 20 11.8518 20 10.1884C20 10.1276 20 10.0659 19.9992 10.0043C20 9.94759 20 9.88009 20 9.81259C20 8.14843 19.8483 6.52009 19.5575 4.94093ZM8.00667 13.0426V6.96509L13.2283 10.0084L8.00667 13.0426Z" fill="#FF7D5F"/>
</g>
<defs>
<clipPath id="clip0">
<rect width="20" height="20" fill="white"/>
</clipPath>
</defs>
</svg>
